<svg width="704" height="436" viewBox="0 0 704 436" fill="none" xmlns="http://www.w3.org/2000/svg">
<g clip-path="url(#clip0_180_5228)">
<path d="M669.361 369.566H576.868C570.876 369.566 566.195 374.434 566.195 380.238V382.672C566.195 388.664 571.063 393.344 576.868 393.344H669.361V369.566Z" fill="#6F86FF"/>
<path d="M669.362 370.876H618.809C613.566 370.876 609.26 375.183 609.26 380.425V382.672C609.26 387.914 613.566 392.221 618.809 392.221H669.362V370.876Z" fill="white"/>
<path d="M675.915 354.213H583.234C579.302 354.213 576.307 357.396 576.307 361.14V362.825C576.307 366.757 579.49 369.753 583.234 369.753H675.915V354.213Z" fill="#E8E8E8"/>
<path d="M675.916 355.149H626.86C623.49 355.149 620.682 357.957 620.682 361.328V362.638C620.682 366.009 623.49 368.817 626.86 368.817H675.916V355.149Z" fill="white"/>
<path d="M579.115 336.8H662.996C666.554 336.8 669.362 340.357 669.362 344.664V346.349C669.362 350.655 666.554 354.213 662.996 354.213H579.115V336.8Z" fill="#BFBFBF"/>
<path d="M579.115 337.736H622.928C626.298 337.736 629.107 340.545 629.107 343.915V346.911C629.107 350.281 626.298 353.089 622.928 353.089H579.115V337.736Z" fill="white"/>
<path d="M137.243 351.217C142.672 340.732 156.153 333.43 164.392 330.621C172.63 327.813 155.404 313.208 172.443 309.276C195.847 304.034 174.128 295.983 192.289 286.059C208.017 277.447 183.864 277.447 192.851 264.902C201.651 252.357 216.068 253.293 208.017 242.059C199.966 230.825 209.515 225.208 201.277 220.715C193.038 216.221 186.485 227.268 181.243 225.77C176.187 224.272 164.017 218.655 161.77 231.387C159.336 243.932 156.153 243.37 147.728 247.864C139.302 252.357 148.477 267.523 144.17 275.574C139.677 283.625 127.694 274.076 131.438 287.37C135.37 301.6 130.877 305.157 123.949 308.902C117.021 312.834 135.932 325.94 123.013 351.591L137.243 351.217Z" fill="#757575"/>
<g opacity="0.3">
<path d="M126.57 369.566C128.443 356.834 131.626 344.102 135.558 331.745C139.302 319.387 144.17 307.217 149.413 295.421C154.655 283.625 161.209 272.204 168.136 261.345C175.251 250.485 183.677 240.374 192.664 231.2C190.792 233.821 188.732 236.255 186.672 238.877C185.736 240.187 184.613 241.311 183.677 242.621L180.868 246.553C178.996 249.174 177.124 251.796 175.438 254.417L170.383 262.655L169.072 264.715L167.949 266.774L165.515 270.894C164.017 273.702 162.332 276.511 160.834 279.319L156.341 287.932L152.221 296.732C146.792 308.34 142.111 320.323 137.804 332.494C135.745 338.485 133.498 344.664 131.626 350.842C129.941 357.208 128.255 363.387 126.57 369.566Z" fill="white"/>
</g>
<path d="M108.221 339.234C108.221 339.234 99.9829 323.132 96.7999 307.217C93.6169 291.302 105.413 291.677 113.464 281.191C121.515 270.706 89.685 267.711 97.5488 252.17C105.413 236.63 119.455 246.74 123.574 228.953C127.694 211.166 109.719 196.374 127.694 183.268C145.668 170.162 177.311 179.523 166.825 202.179C156.153 224.834 154.468 236.255 163.455 240.749C172.442 245.243 171.506 254.417 162.894 261.906C154.094 269.396 155.966 286.247 164.391 290.179C172.817 294.111 160.834 312.085 152.596 313.957C144.357 315.83 151.659 335.115 128.63 343.915L108.221 339.234Z" fill="#4A4A4A"/>
<g opacity="0.3">
<path d="M120.017 344.102C119.642 331.557 120.204 318.825 121.328 306.281C122.451 293.736 124.323 281.191 126.57 268.647C128.817 256.289 132 243.932 135.745 231.762C139.489 219.591 144.17 207.796 149.787 196.562C146.042 208.545 142.298 220.527 139.302 232.698C138.928 234.196 138.553 235.693 138.179 237.191L137.055 241.685C136.306 244.681 135.557 247.864 134.996 250.859L132.936 260.034L131.251 269.208C128.817 281.566 126.945 293.923 125.072 306.281C123.013 319.2 121.515 331.557 120.017 344.102Z" fill="white"/>
</g>
<path d="M116.273 353.651C106.911 341.668 88.1875 335.676 77.1407 333.991C66.0939 332.306 84.4428 309.838 62.162 308.902C31.4556 307.591 56.9194 292.613 31.6428 284.187C9.73645 276.885 40.2556 271.455 26.0258 257.6C11.9833 243.745 -5.80398 248.238 1.68538 232.323C9.17475 216.221 -4.11887 211.353 5.24283 203.864C14.6045 196.374 25.4641 208.732 31.6428 205.736C37.8216 202.74 51.6769 192.817 57.4811 208.17C63.2854 223.523 67.4045 222.025 78.8258 225.583C90.4343 229.14 82.3832 250.672 89.8726 259.659C97.362 268.647 110.281 253.855 108.596 271.642C106.911 290.366 113.464 293.923 123.2 297.106C132.749 300.476 112.153 321.259 134.247 350.655L116.273 353.651Z" fill="#A9A9A9"/>
<g opacity="0.3">
<path d="M133.872 374.247C130.315 366.757 126.757 359.268 122.825 352.153C119.081 344.851 114.962 337.549 110.843 330.434C102.604 316.204 93.8042 302.162 84.2553 288.681L77.1404 278.57L69.651 268.834C67.217 265.464 64.5957 262.468 61.9744 259.285L58.0425 254.604L56.1702 252.17L54.1106 249.923L45.6851 240.749C42.8766 237.753 39.8808 234.944 36.8851 231.949L32.5787 227.642C31.0808 226.144 29.5829 224.834 27.8978 223.523C24.7149 220.902 21.7191 218.093 18.5361 215.285C32.017 224.834 45.1234 235.506 56.5446 247.489C67.9659 259.659 78.6383 272.391 88.1872 286.059C97.7361 299.727 106.349 313.957 114.025 328.749C121.515 343.353 128.443 358.519 133.872 374.247Z" fill="white"/>
</g>
<path d="M100.92 393.532H143.422L150.163 350.655H94.1797L100.92 393.532Z" fill="#3758F9"/>
<path d="M85.9821 353.185H158.629V335.959H85.9821V353.185Z" fill="#6F86FF"/>
<path d="M340.017 211.728C356.306 209.855 448.238 383.609 448.238 383.609H413.974L328.97 281.566C328.97 281.566 305.379 215.847 340.017 211.728Z" fill="#6F86FF"/>
<path d="M288.714 199.557C310.059 199.557 347.88 203.864 354.808 229.328C361.736 254.791 384.578 408.511 384.578 408.511H200.153C200.153 408.511 196.033 228.391 225.991 217.532C252.953 207.796 270.74 199.557 288.714 199.557Z" fill="#6F86FF"/>
<path d="M290.775 393.719H460.784L464.341 383.796H305.005C298.639 383.608 293.022 387.54 290.775 393.719Z" fill="#757575"/>
<path d="M539.796 393.719H391.132C384.204 393.719 379.336 386.791 381.583 380.238L414.724 288.306C416.222 284.374 419.966 281.566 424.273 281.566H572.936C579.864 281.566 584.732 288.494 582.485 295.047L549.345 386.979C547.66 390.911 543.915 393.719 539.796 393.719Z" fill="#E8E8E8"/>
<path d="M424.272 281.566C419.966 281.566 416.221 284.187 414.724 288.306L382.332 378.179C397.124 382.485 413.226 384.732 430.077 384.732C505.158 384.732 566.009 338.672 566.196 281.566H424.272Z" fill="#A9A9A9"/>
<path d="M481.94 351.966C489.903 351.966 496.357 345.511 496.357 337.549C496.357 329.587 489.903 323.132 481.94 323.132C473.978 323.132 467.523 329.587 467.523 337.549C467.523 345.511 473.978 351.966 481.94 351.966Z" fill="#BFBFBF"/>
<path d="M316.987 212.664C319.234 220.528 311.932 230.451 294.145 230.451C277.481 230.451 264 222.587 264 212.851C264 203.115 275.796 196 290.774 196C305.94 196.187 313.991 201.617 316.987 212.664Z" fill="white"/>
<path d="M249.021 127.285C249.021 127.285 235.54 134.775 238.723 147.319C241.906 159.864 253.514 154.621 252.578 167.728C251.642 180.834 268.493 196.562 281.038 182.706C293.77 169.038 278.978 117.362 249.021 127.285Z" fill="#757575"/>
<path d="M276.544 160.238C276.544 160.238 271.114 202.553 268.306 210.042C265.497 217.532 281.412 232.136 304.067 225.208C326.91 218.281 297.701 195.438 302.008 169.787C306.314 143.949 276.544 160.238 276.544 160.238Z" fill="white"/>
<path d="M335.337 136.085C335.337 163.234 320.92 188.698 294.895 188.698C276.171 188.698 259.133 163.047 259.133 136.085C259.133 108.936 271.49 87.0298 294.146 87.0298C316.988 87.0298 335.337 108.936 335.337 136.085Z" fill="white"/>
<path d="M260.629 141.889C279.54 140.579 271.301 112.681 281.599 117.736C306.127 130.094 304.816 104.068 326.723 116.613C345.446 127.472 371.659 108.562 360.612 83.6596C349.378 58.7574 328.221 58.5702 313.242 74.4851C302.944 85.5319 284.221 70.3659 268.306 72.2383C249.582 74.4851 249.021 92.4596 252.578 100.323C255.386 106.877 253.701 108.749 246.212 113.243C235.54 119.421 243.029 143.013 260.629 141.889Z" fill="#757575"/>
<path d="M286.281 360.579C302.196 372.749 317.362 353.838 328.97 361.889C340.579 369.94 350.502 376.119 359.115 376.868C367.915 377.617 368.289 383.421 357.055 383.983C346.009 384.545 342.077 379.864 342.077 379.864C342.077 379.864 349.753 387.728 346.383 392.783C343.013 397.838 342.638 383.421 331.592 384.17C322.604 384.732 307.813 393.532 285.532 383.796C266.06 375.183 281.226 363.762 286.281 360.579Z" fill="white"/>
<path d="M224.307 218.281C242.655 215.285 245.464 249.174 210.077 344.476C210.077 344.476 297.141 356.834 297.89 364.885C298.638 372.936 295.268 387.54 287.03 391.847C278.604 395.966 197.532 392.596 183.115 383.796C168.698 374.996 162.145 356.647 171.507 318.825C181.055 279.881 200.153 222.025 224.307 218.281Z" fill="#6F86FF"/>
<path d="M260.629 154.996C267.247 154.996 272.612 147.619 272.612 138.519C272.612 129.419 267.247 122.042 260.629 122.042C254.011 122.042 248.646 129.419 248.646 138.519C248.646 147.619 254.011 154.996 260.629 154.996Z" fill="#6F86FF"/>
<path d="M311.183 75.9829C306.128 70.3659 299.2 67.5574 290.587 67.5574C284.596 67.5574 279.353 69.8042 275.047 74.2978C257.821 91.7106 258.383 136.834 258.383 138.706H260.255C260.255 138.332 259.694 92.6467 276.357 75.6084C280.477 71.4893 285.157 69.4297 290.587 69.4297C298.638 69.4297 305.004 72.051 309.685 77.1063C310.06 76.5446 310.621 76.1701 311.183 75.9829Z" fill="#6F86FF"/>
<path d="M315.489 172.221H310.621C309.123 172.221 307.812 170.911 307.812 169.413C307.812 167.915 309.123 166.604 310.621 166.604H315.489C316.987 166.604 318.298 167.915 318.298 169.413C318.298 171.098 317.174 172.221 315.489 172.221Z" fill="#6F86FF"/>
<path d="M334.586 146.383C334.399 147.506 334.024 149.379 333.837 150.689C334.586 154.06 334.773 158.741 332.339 162.485C329.718 166.417 324.475 168.477 316.799 168.477V170.349C325.224 170.349 330.841 168.102 333.837 163.609C338.331 156.868 335.335 148.068 334.586 146.383Z" fill="#6F86FF"/>
<path d="M551.217 61.3787H453.106C451.047 61.3787 448.8 63.0638 448.051 65.1233L427.83 120.732L424.834 129.157L420.715 140.766C419.592 144.136 422.962 145.821 426.145 143.387L444.119 130.281C445.055 129.532 446.179 129.157 447.115 129.157H526.689C528.749 129.157 530.996 127.472 531.745 125.413L553.651 65.1233C554.213 63.0638 553.277 61.3787 551.217 61.3787Z" fill="#A9A9A9"/>
<path d="M464.715 76.7319H525.004" stroke="white" stroke-width="2.5" stroke-miterlimit="10" stroke-linecap="round" stroke-linejoin="round"/>
<path d="M495.607 89.2766H520.51" stroke="white" stroke-width="2.5" stroke-miterlimit="10" stroke-linecap="round" stroke-linejoin="round"/>
<path d="M460.033 89.2766H485.31" stroke="white" stroke-width="2.5" stroke-miterlimit="10" stroke-linecap="round" stroke-linejoin="round"/>
<path d="M503.285 101.821H515.83" stroke="white" stroke-width="2.5" stroke-miterlimit="10" stroke-linecap="round" stroke-linejoin="round"/>
<path d="M455.541 101.821H492.801" stroke="white" stroke-width="2.5" stroke-miterlimit="10" stroke-linecap="round" stroke-linejoin="round"/>
<path d="M450.859 114.553H489.055" stroke="white" stroke-width="2.5" stroke-miterlimit="10" stroke-linecap="round" stroke-linejoin="round"/>
<path d="M120.766 96.5786H197.158C198.843 96.5786 200.528 97.8893 201.089 99.5744L216.817 142.825L219.251 149.379L222.621 158.366C223.558 160.987 220.936 162.298 218.315 160.425L204.46 150.128C203.711 149.566 202.775 149.191 202.026 149.191H140.051C138.366 149.191 136.681 147.881 136.119 146.196L119.081 99.1999C118.332 97.8893 119.268 96.5786 120.766 96.5786Z" fill="#6F86FF"/>
<path d="M188.171 108.374H141.175" stroke="white" stroke-width="2" stroke-miterlimit="10" stroke-linecap="round" stroke-linejoin="round"/>
<path d="M164.018 118.298H144.732" stroke="white" stroke-width="2" stroke-miterlimit="10" stroke-linecap="round" stroke-linejoin="round"/>
<path d="M191.728 118.298H172.068" stroke="white" stroke-width="2" stroke-miterlimit="10" stroke-linecap="round" stroke-linejoin="round"/>
<path d="M158.026 128.034H148.29" stroke="white" stroke-width="2" stroke-miterlimit="10" stroke-linecap="round" stroke-linejoin="round"/>
<path d="M195.285 128.034H166.264" stroke="white" stroke-width="2" stroke-miterlimit="10" stroke-linecap="round" stroke-linejoin="round"/>
<path d="M198.843 137.957H169.26" stroke="white" stroke-width="2" stroke-miterlimit="10" stroke-linecap="round" stroke-linejoin="round"/>
<g opacity="0.3">
<path d="M587.354 169.038C587.354 161.736 593.345 155.745 600.647 155.745H619.37C626.673 155.745 632.664 161.736 632.664 169.038C632.664 176.34 626.673 182.332 619.37 182.332H603.456L597.09 188.698V181.957C591.473 180.272 587.354 175.217 587.354 169.038Z" fill="#A9A9A9"/>
<path d="M622.555 171.66C624.003 171.66 625.176 170.486 625.176 169.038C625.176 167.591 624.003 166.417 622.555 166.417C621.107 166.417 619.934 167.591 619.934 169.038C619.934 170.486 621.107 171.66 622.555 171.66Z" fill="#FAFAFA"/>
<path d="M610.01 171.66C611.458 171.66 612.631 170.486 612.631 169.038C612.631 167.591 611.458 166.417 610.01 166.417C608.562 166.417 607.389 167.591 607.389 169.038C607.389 170.486 608.562 171.66 610.01 171.66Z" fill="#FAFAFA"/>
<path d="M597.278 171.66C598.725 171.66 599.899 170.486 599.899 169.038C599.899 167.591 598.725 166.417 597.278 166.417C595.83 166.417 594.656 167.591 594.656 169.038C594.656 170.486 595.83 171.66 597.278 171.66Z" fill="#FAFAFA"/>
</g>
<g opacity="0.3">
<path d="M510.025 232.136H470.144C467.71 232.136 465.838 230.264 465.838 227.83V206.298C465.838 203.864 467.71 201.991 470.144 201.991H510.025C512.459 201.991 514.332 203.864 514.332 206.298V227.83C514.332 230.264 512.459 232.136 510.025 232.136Z" fill="#A9A9A9"/>
<path d="M511.523 202.366L490.178 222.587L484.561 217.157L468.833 202.366C468.084 202.553 467.523 202.928 466.961 203.489L482.689 218.468L466.961 230.826C467.523 231.387 468.084 231.762 468.833 231.949L483.999 219.779L489.804 225.209L495.608 219.779L510.774 231.949C511.523 231.762 512.272 231.387 512.646 230.826L496.918 218.468L512.646 203.489C512.833 202.928 512.272 202.553 511.523 202.366Z" fill="#FAFAFA"/>
</g>
<path opacity="0.3" d="M399.182 23.7446C397.872 22.434 396.187 22.434 394.876 23.7446C393.94 24.6808 392.816 25.8042 391.88 26.7404C391.693 26.9276 391.319 27.1148 391.131 26.9276C390.57 26.5531 389.821 26.3659 389.259 25.9914C386.263 24.1191 383.829 21.8723 381.77 19.251C380.646 17.9404 379.71 16.4425 379.148 14.9446C378.961 14.5701 378.961 14.3829 379.336 14.1957C380.272 13.2595 381.395 12.3233 382.331 11.1999C383.642 9.88929 383.642 8.20418 382.331 6.89354C381.582 6.14461 380.833 5.39567 379.897 4.4595C379.148 3.71057 378.212 2.7744 377.463 2.02546C376.153 0.714821 374.468 0.714821 373.157 2.02546C372.221 2.96163 371.097 4.08503 370.161 5.0212C369.225 5.95737 368.663 7.08078 368.663 8.39142C368.476 10.451 369.038 12.5106 369.787 14.3829C371.285 18.3148 373.531 21.8723 376.34 25.2425C380.085 29.7361 384.391 33.1063 389.633 35.7276C391.88 36.851 394.314 37.7872 396.936 37.7872C398.808 37.9744 400.306 37.4127 401.616 36.1021C402.553 35.1659 403.489 34.2297 404.425 33.2935C405.736 31.9829 405.736 30.2978 404.425 28.9872C402.365 27.1148 400.868 25.4297 399.182 23.7446Z" fill="#A9A9A9"/>
<path d="M631.541 336.8H622.179C615.064 336.8 609.447 330.996 609.447 324.068V301.974H644.273V324.068C644.273 330.996 638.469 336.8 631.541 336.8Z" fill="#6F86FF"/>
<path d="M648.017 327.813H642.774C639.966 327.813 637.906 325.566 637.906 322.945V312.085C637.906 309.277 640.153 307.217 642.774 307.217H648.017C650.825 307.217 652.885 309.464 652.885 312.085V322.945C653.072 325.566 650.825 327.813 648.017 327.813ZM642.774 309.651C641.464 309.651 640.34 310.774 640.34 312.272V323.132C640.34 324.443 641.464 325.566 642.774 325.566H648.017C649.328 325.566 650.451 324.443 650.451 323.132V312.272C650.451 310.962 649.328 309.651 648.017 309.651H642.774Z" fill="#6F86FF"/>
<path d="M696.324 408.885H67.7793V393.532H696.137C700.443 393.532 703.813 396.902 703.813 401.208C704.001 405.515 700.443 408.885 696.324 408.885Z" fill="#757575"/>
<path d="M656.63 435.098H67.7793V409.072H656.443C662.247 409.072 666.928 413.379 666.928 418.808V425.549C667.115 430.604 662.435 435.098 656.63 435.098Z" fill="#263238"/>
</g>
<defs>
<clipPath id="clip0_180_5228">
<rect width="704" height="434.196" fill="white" transform="translate(0 0.9021)"/>
</clipPath>
</defs>
</svg>
